<?xml version="1.0" standalone="no"?>
<!DOCTYPE svg PUBLIC "-//W3C//DTD SVG 20010904//EN"
 "http://www.w3.org/TR/2001/REC-SVG-20010904/DTD/svg10.dtd">
<svg version="1.0" xmlns="http://www.w3.org/2000/svg"
 width="170.000000pt" height="170.000000pt" viewBox="0 0 170.000000 170.000000"
 preserveAspectRatio="xMidYMid meet">

<g transform="translate(0.000000,170.000000) scale(0.100000,-0.100000)"
fill="#000000" stroke="none">
<path d="M1229 1181 c-88 -18 -149 -83 -149 -158 0 -84 30 -118 179 -197 179
-96 215 -134 208 -224 -7 -99 -72 -147 -198 -147 -64 0 -85 5 -138 31 -55 28
-63 29 -71 14 -6 -12 -3 -20 12 -29 47 -29 133 -51 202 -51 156 0 251 93 231
225 -10 72 -71 131 -205 200 -131 67 -166 95 -181 145 -10 32 -9 44 7 76 32
63 63 79 157 79 71 0 88 -4 128 -27 42 -25 48 -26 53 -11 18 45 -139 94 -235
74z"/>
<path d="M200 1162 c0 -8 107 -565 131 -680 10 -49 13 -53 37 -50 25 3 27 11
113 347 48 189 89 345 91 346 2 2 43 -154 92 -346 88 -346 89 -349 115 -349
l26 0 69 358 c38 196 71 363 74 370 2 7 -4 12 -16 12 -24 0 -16 29 -92 -375
-28 -148 -54 -278 -58 -288 -5 -11 -35 93 -86 290 -44 169 -83 323 -88 341 -7
26 -14 32 -36 32 l-27 0 -84 -332 c-46 -183 -87 -336 -91 -341 -3 -4 -35 146
-71 333 -55 293 -66 340 -81 340 -10 0 -18 -4 -18 -8z"/>
</g>
</svg>
